HIERARCHY
ROOT Hips
{
	OFFSET 0.00000 0.00000 0.00000
	CHANNELS 6 Xposition Yposition Zposition Zrotation Yrotation Xrotation 
	JOINT LHipJoint
	{
		OFFSET 0 0 0
		CHANNELS 3 Zrotation Yrotation Xrotation
		JOINT LeftUpLeg
		{
			OFFSET 1.62964 -1.40469 0.78906
			CHANNELS 3 Zrotation Yrotation Xrotation
			JOINT LeftLeg
			{
				OFFSET 2.29640 -6.30932 0.00000
				CHANNELS 3 Zrotation Yrotation Xrotation
				JOINT LeftFoot
				{
					OFFSET 2.29451 -6.30412 0.00000
					CHANNELS 3 Zrotation Yrotation Xrotation
					JOINT LeftToeBase
					{
						OFFSET 0.03611 -0.09921 1.56387
						CHANNELS 3 Zrotation Yrotation Xrotation
						End Site
						{
							OFFSET 0.00000 -0.00000 0.80291
						}
					}
				}
			}
		}
	}
	JOINT RHipJoint
	{
		OFFSET 0 0 0
		CHANNELS 3 Zrotation Yrotation Xrotation
		JOINT RightUpLeg
		{
			OFFSET -1.73712 -1.40469 0.78906
			CHANNELS 3 Zrotation Yrotation Xrotation
			JOINT RightLeg
			{
				OFFSET -2.28137 -6.26801 0.00000
				CHANNELS 3 Zrotation Yrotation Xrotation
				JOINT RightFoot
				{
					OFFSET -2.28681 -6.28298 0.00000
					CHANNELS 3 Zrotation Yrotation Xrotation
					JOINT RightToeBase
					{
						OFFSET -0.15927 -0.43759 1.61103
						CHANNELS 3 Zrotation Yrotation Xrotation
						End Site
						{
							OFFSET -0.00000 -0.00000 0.84630
						}
					}
				}
			}
		}
	}
	JOINT LowerBack
	{
		OFFSET 0 0 0
		CHANNELS 3 Zrotation Yrotation Xrotation
		JOINT Spine
		{
			OFFSET -0.04227 2.04338 -0.00225
			CHANNELS 3 Zrotation Yrotation Xrotation
			JOINT Spine1
			{
				OFFSET -0.02148 2.04482 -0.04273
				CHANNELS 3 Zrotation Yrotation Xrotation
				JOINT Neck
				{
					OFFSET 0 0 0
					CHANNELS 3 Zrotation Yrotation Xrotation
					JOINT Neck1
					{
						OFFSET 0.09180 1.44629 0.19359
						CHANNELS 3 Zrotation Yrotation Xrotation
						JOINT Head
						{
							OFFSET 0.00887 1.40645 0.14750
							CHANNELS 3 Zrotation Yrotation Xrotation
							End Site
							{
								OFFSET -0.00669 1.50671 0.03707
							}
						}
					}
				}
				JOINT LeftShoulder
				{
					OFFSET 0 0 0
					CHANNELS 3 Zrotation Yrotation Xrotation
					JOINT LeftArm
					{
						OFFSET 2.17674 1.86763 -0.06520
						CHANNELS 3 Zrotation Yrotation Xrotation
						JOINT LeftForeArm
						{
							OFFSET 4.65776 -0.00000 0.00000
							CHANNELS 3 Zrotation Yrotation Xrotation
							JOINT LeftHand
							{
								OFFSET 3.55539 -0.00000 0.00000
								CHANNELS 3 Zrotation Yrotation Xrotation
								JOINT LeftFingerBase
								{
									OFFSET 0 0 0
									CHANNELS 3 Zrotation Yrotation Xrotation
									JOINT LeftHandIndex1
									{
										OFFSET 0.70726 -0.00000 0.00000
										CHANNELS 3 Zrotation Yrotation Xrotation
										End Site
										{
											OFFSET 0.57022 -0.00000 0.00000
										}
									}
								}
								JOINT LThumb
								{
									OFFSET 0 0 0
									CHANNELS 3 Zrotation Yrotation Xrotation
									End Site
									{
										OFFSET 0.57892 -0.00000 0.57892
									}
								}
							}
						}
					}
				}
				JOINT RightShoulder
				{
					OFFSET 0 0 0
					CHANNELS 3 Zrotation Yrotation Xrotation
					JOINT RightArm
					{
						OFFSET -2.80694 1.55459 -0.32496
						CHANNELS 3 Zrotation Yrotation Xrotation
						JOINT RightForeArm
						{
							OFFSET -4.71925 -0.00000 -0.00000
							CHANNELS 3 Zrotation Yrotation Xrotation
							JOINT RightHand
							{
								OFFSET -3.56990 -0.00000 0.00000
								CHANNELS 3 Zrotation Yrotation Xrotation
								JOINT RightFingerBase
								{
									OFFSET 0 0 0
									CHANNELS 3 Zrotation Yrotation Xrotation
									JOINT RightHandIndex1
									{
										OFFSET -0.50776 -0.00000 0.00000
										CHANNELS 3 Zrotation Yrotation Xrotation
										End Site
										{
											OFFSET -0.40937 -0.00000 0.00000
										}
									}
								}
								JOINT RThumb
								{
									OFFSET 0 0 0
									CHANNELS 3 Zrotation Yrotation Xrotation
									End Site
									{
										OFFSET -0.41562 -0.00000 0.41562
									}
								}
							}
						}
					}
				}
			}
		}
	}
}
MOTION
Frames: 13
Frame Time: .0083333
6.4441 17.1109 18.1155 184.5690 3.7236 -142.9600 0.0000 0.0000 0.0000 5.8280 -17.7141 -47.4515 1.8445 8.5344 24.3493 -0.1812 11.2828 -13.0781 6.8302 -15.1873 -48.2293 0.0000 0.0000 0.0000 -23.7570 20.7040 -27.3402 -1.9760 -8.8159 25.2212 -0.7522 -6.9352 -20.3361 -3.8776 11.9957 -35.7169 -0.9111 -2.6828 -6.4170 2.2830 -3.4832 6.4678 2.4348 -1.7605 10.7316 -2.6141 3.3416 -8.9967 3.0348 4.8197 15.0521 1.7632 2.5393 5.8915 -0.0000 -0.0000 0.0000 -58.8814 -21.0406 28.9912 33.0406 -43.3612 -13.4499 -0.0000 0.0000 -2.8589 25.6388 -13.1171 -6.2162 -7.1250 0.0000 -0.0000 -1.1633 15.4896 0.8106 -0.0000 -0.0000 0.0000 84.7250 -7.8201 3.2107 -42.7316 49.6075 -20.4961 0.0000 -0.0000 -14.7442 -13.2006 -52.4381 10.5329 7.1250 -0.0000 -0.0000 64.1142 -76.0156 -50.5609
6.3623 17.1209 18.0884 184.5720 3.6241 -143.1000 0.0000 0.0000 0.0000 5.2734 -17.7395 -47.2194 1.8308 8.5045 24.2571 -0.1828 11.1364 -12.7843 7.0878 -15.4054 -49.2058 0.0000 0.0000 0.0000 -23.8142 20.2363 -26.6628 -1.8326 -8.5083 24.2688 -0.6379 -7.1135 -19.3236 -4.0434 12.2179 -36.5071 -1.0559 -2.7176 -6.2899 2.2924 -3.5071 6.5453 2.5268 -1.7815 10.7545 -2.3115 3.3263 -8.9866 2.7200 4.7988 15.0339 1.6132 2.5208 5.9010 -0.0000 0.0000 0.0000 -59.2708 -20.9070 29.7018 32.8859 -43.2421 -13.3438 -0.0000 0.0000 -2.8811 25.2964 -13.1534 -6.1385 -7.1250 0.0000 -0.0000 -1.4009 15.4903 0.9762 -0.0000 0.0000 0.0000 85.0033 -7.9889 2.8296 -42.4971 49.4817 -20.3177 0.0000 -0.0000 -14.5773 -12.2040 -51.9006 9.6592 7.1250 -0.0000 -0.0000 62.6045 -75.4442 -48.6009
6.2810 17.1154 18.0789 185.0120 4.0566 -142.3600 0.0000 0.0000 0.0000 5.3965 -17.1530 -48.0368 1.8505 8.5475 24.3897 -0.1556 10.9748 -13.0278 6.7732 -15.1379 -48.0114 0.0000 0.0000 0.0000 -24.4077 19.8254 -27.7462 -1.7709 -8.3715 23.8484 -0.5184 -7.1061 -18.0226 -4.0797 12.2657 -36.6786 -1.0814 -2.4974 -6.9412 2.3234 -3.2389 6.3046 2.5953 -1.6648 10.8642 -2.2180 3.2559 -8.6032 2.6492 4.6970 14.8818 1.5566 2.4735 5.7943 -0.0000 0.0000 0.0000 -59.7579 -20.5986 30.4765 32.6856 -43.0870 -13.2068 -0.0000 0.0000 -2.9646 24.9588 -13.5172 -6.2087 -7.1250 0.0000 -0.0000 -1.6572 15.1334 1.1676 -0.0000 0.0000 0.0000 85.2499 -8.2935 2.4137 -42.1192 49.2765 -20.0308 0.0000 -0.0000 -14.3755 -12.5410 -52.0235 9.9454 7.1250 -0.0000 -0.0000 62.8747 -75.6179 -49.0261
6.1996 17.1162 18.0602 185.3700 4.2189 -142.0170 0.0000 0.0000 0.0000 5.4563 -16.9216 -48.2912 1.8445 8.5345 24.3496 -0.0928 10.5624 -13.5032 6.0353 -14.4624 -45.1230 0.0000 0.0000 0.0000 -24.6224 19.4839 -28.0802 -1.6956 -8.2010 23.3263 -0.4279 -7.1655 -17.0174 -3.9529 12.0975 -36.0776 -1.0007 -2.3721 -7.0867 2.3770 -3.0972 6.1165 2.6270 -1.5963 10.7301 -1.8555 3.2744 -8.7651 2.4410 4.7156 15.1474 1.4433 2.4893 5.9197 -0.0000 0.0000 0.0000 -60.1470 -20.2573 31.3673 32.4506 -42.9035 -13.0466 -0.0000 0.0000 -3.4109 24.6860 -13.6936 -6.2101 -7.1250 0.0000 -0.0000 -1.8557 14.9739 1.3139 -0.0000 0.0000 0.0000 85.4726 -8.6152 2.0343 -41.6165 48.9990 -19.6507 0.0000 -0.0000 -14.0614 -13.0833 -51.9545 10.3715 7.1250 -0.0000 -0.0000 62.3334 -75.8028 -48.7383
6.1194 17.1324 18.0236 185.2490 3.9210 -142.5880 0.0000 0.0000 0.0000 4.7459 -17.2820 -47.3687 1.7838 8.4004 23.9370 -0.0727 10.2624 -13.3912 5.9991 -14.4274 -44.9779 0.0000 0.0000 0.0000 -24.3827 19.1946 -26.7567 -1.5795 -7.9290 22.4987 -0.3416 -7.6155 -16.3628 -3.8936 12.0175 -35.7938 -1.0352 -2.5125 -6.9343 2.3461 -3.2537 6.4869 2.5916 -1.6655 11.0654 -1.7750 3.1512 -9.1797 2.4425 4.5382 15.3696 1.4314 2.4066 6.0671 0.0000 -0.0000 0.0000 -60.3196 -20.3884 31.9097 32.1508 -42.6670 -12.8429 -0.0000 0.0000 -3.8945 24.1299 -13.3891 -5.9220 -7.1250 0.0000 -0.0000 -2.2170 15.3688 1.5513 0.0000 -0.0000 0.0000 85.7466 -8.4370 1.7233 -41.0882 48.7016 -19.2529 0.0000 -0.0000 -13.5819 -14.0823 -52.3568 11.2346 7.1250 -0.0000 -0.0000 63.3790 -76.3311 -50.2317
6.0369 17.1455 17.9988 185.1850 3.8649 -142.7630 0.0000 0.0000 0.0000 4.1069 -17.3651 -47.0168 1.7453 8.3140 23.6720 -0.0917 10.3273 -13.1472 6.4491 -14.8499 -46.7586 0.0000 0.0000 0.0000 -24.5028 18.8524 -26.3082 -1.5140 -7.7704 22.0188 -0.2480 -8.1516 -15.6703 -3.9384 12.0780 -36.0083 -1.0864 -2.5404 -6.9150 2.2947 -3.2727 6.6101 2.5620 -1.6741 11.1939 -2.1873 3.0340 -8.5967 2.8210 4.3519 14.6875 1.5770 2.3183 5.7374 -0.0000 -0.0000 0.0000 -60.6349 -20.3422 32.4823 31.8677 -42.4415 -12.6515 -0.0000 0.0000 -4.1338 23.7995 -13.0773 -5.6988 -7.1250 0.0000 -0.0000 -2.4255 15.7432 1.6779 -0.0000 -0.0000 0.0000 86.0152 -8.5292 1.4280 -40.6354 48.4419 -18.9133 0.0000 -0.0000 -13.0832 -15.3799 -52.8622 12.3681 7.1250 -0.0000 -0.0000 64.8748 -76.9996 -52.2910
5.9599 17.1558 17.9827 185.2070 4.0377 -142.6920 0.0000 0.0000 0.0000 3.6788 -17.2941 -46.9672 1.7286 8.2763 23.5565 -0.0781 10.2117 -13.2137 6.5049 -14.9004 -46.9759 0.0000 0.0000 0.0000 -24.8548 18.6821 -26.5456 -1.5050 -7.7483 21.9522 -0.1559 -8.6723 -14.9460 -3.8396 11.9438 -35.5335 -1.2460 -2.4750 -6.9840 2.2207 -3.1600 6.6302 2.5882 -1.6301 11.2567 -2.1680 2.8222 -9.0974 3.1301 4.0360 15.2072 1.6696 2.1955 5.9885 0.0000 -0.0000 0.0000 -60.9523 -20.2166 33.0626 31.6171 -42.2398 -12.4827 -0.0000 0.0000 -4.3107 23.7526 -12.9517 -5.6330 -7.1250 0.0000 -0.0000 -2.4507 15.8839 1.6879 0.0000 -0.0000 0.0000 86.3469 -8.6030 1.0953 -40.0762 48.1150 -18.4960 0.0000 -0.0000 -12.5576 -15.4406 -52.3058 12.3287 7.1250 -0.0000 -0.0000 62.5365 -76.8469 -50.0113
5.8834 17.1614 17.9650 185.3500 4.3438 -142.5600 0.0000 0.0000 0.0000 3.4091 -17.1843 -46.8904 1.7181 8.2524 23.4833 -0.0163 9.7618 -13.6299 5.7132 -14.1445 -43.8195 0.0000 0.0000 0.0000 -25.2241 18.6477 -27.1175 -1.5365 -7.8254 22.1850 -0.0696 -9.1210 -14.1764 -3.6294 11.6502 -34.5054 -1.3184 -2.4187 -7.3533 2.1496 -3.0715 6.6956 2.5549 -1.5926 11.5499 -2.1611 2.8336 -8.8188 3.0070 4.0539 14.8746 1.6184 2.1910 5.8383 -0.0000 0.0000 0.0000 -61.2595 -19.9617 33.4392 31.3750 -42.0432 -12.3202 -0.0000 0.0000 -4.4423 23.8284 -12.9035 -5.6325 -7.1250 0.0000 -0.0000 -2.3956 15.9278 1.6477 -0.0000 0.0000 0.0000 86.5767 -8.5664 0.9721 -39.4518 47.7417 -18.0325 0.0000 -0.0000 -11.8774 -14.8236 -51.2324 11.6592 7.1250 -0.0000 -0.0000 58.6242 -76.2022 -45.8696
5.8081 17.1720 17.9488 185.4870 4.5223 -142.5410 0.0000 0.0000 0.0000 3.1861 -17.2466 -46.6898 1.6984 8.2074 23.3457 0.0304 9.4830 -14.0229 5.0199 -13.4062 -40.9088 0.0000 0.0000 0.0000 -25.3795 18.5780 -27.5776 -1.5923 -7.9596 22.5915 -0.0035 -9.5238 -13.6287 -3.4141 11.3369 -33.4248 -1.2441 -2.4655 -7.0756 2.1635 -3.1602 6.4398 2.5219 -1.6329 11.0924 -2.2614 2.9201 -8.3487 2.8025 4.2256 14.8908 1.5736 2.2575 5.7608 0.0000 -0.0000 0.0000 -61.7611 -18.9743 33.8046 31.2237 -41.9194 -12.2190 -0.0000 0.0000 -4.5115 23.7562 -12.8306 -5.5824 -7.1250 0.0000 -0.0000 -2.4414 16.0145 1.6746 0.0000 -0.0000 0.0000 86.5178 -9.1465 1.2210 -38.9433 47.4312 -17.6570 0.0000 -0.0000 -11.0473 -14.3898 -50.7280 11.2339 7.1250 -0.0000 -0.0000 57.0248 -75.8185 -44.0871
5.7356 17.1876 17.9341 185.6380 4.6306 -142.5800 0.0000 0.0000 0.0000 2.9623 -17.3268 -46.3931 1.6458 8.0856 22.9744 -0.0113 9.8929 -13.9038 5.2778 -13.6900 -42.0094 0.0000 0.0000 0.0000 -25.3679 18.5936 -28.0765 -1.6805 -8.1663 23.2203 0.1008 -10.3597 -13.0317 -3.1865 10.9910 -32.2494 -1.2400 -2.3292 -6.7062 2.1555 -2.9659 6.4778 2.5556 -1.5342 10.8985 -1.7217 2.8904 -9.3255 2.4440 4.1603 15.2725 1.3957 2.2235 6.0713 0.0000 -0.0000 0.0000 -62.0855 -18.8581 34.3856 30.9901 -41.7271 -12.0633 -0.0000 0.0000 -4.5437 23.4171 -12.7339 -5.4531 -7.1250 0.0000 -0.0000 -2.6703 16.1550 1.8239 0.0000 -0.0000 0.0000 86.7825 -9.1143 0.8600 -38.3861 47.0841 -17.2478 0.0000 -0.0000 -10.2631 -13.5819 -50.2485 10.5223 7.1250 -0.0000 -0.0000 55.8769 -75.2884 -42.5669
5.6641 17.2024 17.9206 185.6990 4.8741 -142.5730 0.0000 0.0000 0.0000 2.5326 -17.2894 -46.1284 1.5861 7.9448 22.5464 -0.0824 10.4237 -13.4695 5.8936 -14.3244 -44.5531 0.0000 0.0000 0.0000 -25.4855 18.4672 -28.8438 -1.7884 -8.4107 23.9685 0.2494 -11.4936 -12.0809 -2.8079 10.3773 -30.2075 -1.3823 -2.2669 -6.8594 2.1221 -2.8518 6.6556 2.6140 -1.4875 11.1916 -1.9515 2.7985 -9.4469 2.5968 4.0227 14.9587 1.4669 2.1488 5.9878 0.0000 -0.0000 0.0000 -62.4690 -18.8025 34.6149 30.6940 -41.4809 -11.8667 -0.0000 0.0000 -4.4473 23.3915 -12.6313 -5.4036 -7.1250 0.0000 -0.0000 -2.6826 16.2684 1.8257 0.0000 -0.0000 0.0000 86.9037 -8.8165 0.7607 -37.6994 46.6462 -16.7467 0.0000 -0.0000 -9.6767 -13.1861 -49.6031 10.1169 7.1250 -0.0000 -0.0000 53.9968 -74.8253 -40.5107
5.5935 17.2161 17.9037 185.6450 5.0961 -142.6310 0.0000 0.0000 0.0000 2.0433 -17.4191 -45.7780 1.5361 7.8243 22.1816 -0.0893 10.4361 -13.3649 5.7192 -14.1506 -43.8442 0.0000 0.0000 0.0000 -25.5671 18.1544 -29.5311 -1.9045 -8.6642 24.7504 0.3632 -12.3966 -11.4119 -2.3546 9.5687 -27.5909 -1.5118 -2.2926 -6.9141 2.0260 -2.8704 6.5953 2.5775 -1.5050 11.1595 -1.9717 2.7587 -9.1486 2.6884 3.9720 15.0760 1.4919 2.1361 5.9721 -0.0000 -0.0000 0.0000 -62.8492 -18.1504 34.8328 30.4758 -41.2977 -11.7224 -0.0000 0.0000 -4.3077 23.4466 -12.2690 -5.2657 -7.1250 0.0000 -0.0000 -2.6257 16.6536 1.7650 -0.0000 -0.0000 0.0000 87.0308 -9.0881 0.8701 -37.0761 46.2389 -16.2950 0.0000 -0.0000 -9.1371 -13.1597 -49.4227 10.0698 7.1250 -0.0000 -0.0000 53.4315 -74.7246 -39.9370
5.5261 17.2291 17.8868 185.6550 5.2344 -142.6630 0.0000 0.0000 0.0000 1.6928 -17.5551 -45.4409 1.4854 7.7000 21.8065 -0.0747 10.2893 -13.3965 5.2969 -13.7105 -42.0901 0.0000 0.0000 0.0000 -25.4924 17.9959 -30.3044 -2.0625 -8.9951 25.7799 0.4539 -13.1938 -11.1064 -1.9864 8.8377 -25.2889 -1.5775 -2.2974 -6.7768 2.0041 -2.8792 6.4279 2.5935 -1.5153 10.8902 -1.8907 2.7626 -8.7418 2.5616 3.9901 15.0183 1.4312 2.1430 5.8881 0.0000 0.0000 0.0000 -63.3365 -17.3722 35.1017 30.2624 -41.1173 -11.5818 -0.0000 0.0000 -4.1032 23.2514 -11.8942 -5.0607 -7.1250 0.0000 -0.0000 -2.7433 17.0774 1.8188 0.0000 0.0000 0.0000 87.1197 -9.5359 0.8716 -36.5857 45.9118 -15.9417 0.0000 -0.0000 -8.4403 -12.3393 -49.3943 9.4296 7.1250 -0.0000 -0.0000 53.9706 -74.3990 -40.0666
